# xmcd
#
# Track frame offsets:
#	150
#	13373
#	25328
#	38896
#	50669
#	63653
#	75810
#	89332
#	99837
#	113626
#	127456
#	140283
#	153519
#	163958
#	174563
#	188485
#	200938
#	214607
#	227046
#	238447
#	247698
#	258315
#	269776
#	282156
#	295502
#	308646
#	317335
#	329917
#
# Disc length: 4538 seconds
#
# Revision: 0
# Processed by: cddbd v1.4PL0 Copyright (c) Steve Scherf et al.
# Submitted via: EasyCDDAExtractor 4.6.9.1
#
DISCID=9c11b81c
DTITLE=Slim Whitman - Rose Marie CD 3
DYEAR=1996
DGENRE=Country
TTITLE0=Blue Eyes Crying in the Rain(1956)
TTITLE1=When My Blue Moon Turns To Gold Again(1956)
TTITLE2=That Silver Haired Daddy Of Mine(1956)
TTITLE3=A Petal From A Faded Rose(1956)
TTITLE4=I'll Never Take You Back Again(1956)
TTITLE5=Song Of The Wild(1956)
TTITLE6=Lord Protect My Darling(1996)
TTITLE7=Cryin' For The Moon(1956)
TTITLE8=Roll On Silvery Moon(1955)
TTITLE9=Haunted Hungry Heart(1955)
TTITLE10=I Talk To The Waves(1956)
TTITLE11=At The End Of Nowhere(1956)
TTITLE12=I'll Never Stop Loving You(1956)
TTITLE13=Song Of The Wild(1956)
TTITLE14=Tumbling Tumbleweeds(1956)
TTITLE15=Tell Me(1956)
TTITLE16=I'll Take You Home Again, Kathleen(1996)
TTITLE17=I'm A Fool(1956)
TTITLE18=Serenade(1956)
TTITLE19=The First One To Find The Rainbow(1956)
TTITLE20=Brahms' Lullaby(1960)
TTITLE21=In The Valley Of The Moon(1959)
TTITLE22=Dear Mary(1956)
TTITLE23=I'll Take You Home Again, Kathleen(1958)
TTITLE24=Dear Mary(1996)
TTITLE25=Cryin' For The Moon(1961)
TTITLE26=The Whiffenpoof Song(1956)
TTITLE27=Curtain Of Tears(1957)
EXTD=
EXTT0=
EXTT1=
EXTT2=
EXTT3=
EXTT4=
EXTT5=
EXTT6=
EXTT7=
EXTT8=
EXTT9=
EXTT10=
EXTT11=
EXTT12=
EXTT13=
EXTT14=
EXTT15=
EXTT16=
EXTT17=
EXTT18=
EXTT19=
EXTT20=
EXTT21=
EXTT22=
EXTT23=
EXTT24=
EXTT25=
EXTT26=
EXTT27=
PLAYORDER=
